<svg xmlns="http://www.w3.org/2000/svg" viewBox="0 0 64 64" role="img" aria-label="Gaia">
  <defs>
    <linearGradient id="gaia-favicon-fill" x1="14" x2="50" y1="10" y2="54" gradientUnits="userSpaceOnUse">
      <stop stop-color="#67f4ff"/>
      <stop offset="1" stop-color="#1aa6ff"/>
    </linearGradient>
    <radialGradient id="gaia-favicon-glow" cx="31" cy="26" r="32" gradientUnits="userSpaceOnUse">
      <stop stop-color="#8df7ff" stop-opacity=".32"/>
      <stop offset="1" stop-color="#0b1118" stop-opacity="0"/>
    </radialGradient>
  </defs>
  <rect width="64" height="64" rx="16" fill="#0b1118"/>
  <rect width="64" height="64" rx="16" fill="url(#gaia-favicon-glow)"/>
  <path
    fill="none"
    stroke="url(#gaia-favicon-fill)"
    stroke-linecap="round"
    stroke-linejoin="round"
    stroke-width="5.5"
    d="M45.5 26.3c-1.8-6.6-7.4-11-14.4-11-8.8 0-15.9 7.1-15.9 16s7.1 16 15.9 16c6 0 11.2-3.2 13.9-8.3m-13.8-6.7h18.2c-1.3 9-7.5 15-17.7 15-3.6 0-7-.9-9.7-2.9"
  />
  <path
    fill="none"
    stroke="#a8fbff"
    stroke-linecap="round"
    stroke-width="3.5"
    d="M20.8 38.4c4.7-7 12.1-9.8 22.4-8.4"
    opacity=".88"
  />
</svg>
